<?xml version="1.0" encoding="UTF-8" standalone="no"?>
<!-- Created with Inkscape (http://www.inkscape.org/) -->

<svg
   width="90.410301mm"
   height="16.533173mm"
   viewBox="0 0 90.4103 16.533173"
   version="1.1"
   id="svg5"
   xml:space="preserve"
   inkscape:version="1.3 (0e150ed6c4, 2023-07-21)"
   sodipodi:docname="logo.svg"
   inkscape:export-filename="plume_banner_dark.png"
   inkscape:export-xdpi="600"
   inkscape:export-ydpi="600"
   xmlns:inkscape="http://www.inkscape.org/namespaces/inkscape"
   xmlns:sodipodi="http://sodipodi.sourceforge.net/DTD/sodipodi-0.dtd"
   xmlns:xlink="http://www.w3.org/1999/xlink"
   xmlns="http://www.w3.org/2000/svg"
   xmlns:svg="http://www.w3.org/2000/svg"><sodipodi:namedview
   id="namedview7"
   pagecolor="#ffffff"
   bordercolor="#666666"
   borderopacity="1.0"
   inkscape:showpageshadow="2"
   inkscape:pageopacity="0.0"
   inkscape:pagecheckerboard="true"
   inkscape:deskcolor="#d1d1d1"
   inkscape:document-units="mm"
   showgrid="false"
   inkscape:zoom="2"
   inkscape:cx="190"
   inkscape:cy="74.25"
   inkscape:window-width="1920"
   inkscape:window-height="1027"
   inkscape:window-x="1072"
   inkscape:window-y="394"
   inkscape:window-maximized="1"
   inkscape:current-layer="layer1"
   showguides="true" />&#10;    <defs
   id="defs2"><inkscape:path-effect
   effect="perspective-envelope"
   up_left_point="65.30672,147.90373"
   up_right_point="71.31019,144.42821"
   down_left_point="71.313852,151.36662"
   down_right_point="77.318591,147.90002"
   id="path-effect24"
   is_visible="true"
   lpeversion="1"
   deform_type="perspective"
   horizontal_mirror="true"
   vertical_mirror="false"
   overflow_perspective="false" /><inkscape:perspective
   sodipodi:type="inkscape:persp3d"
   inkscape:vp_x="16.235431 : -16.235431 : 0"
   inkscape:vp_y="-1.3350782e-14 : 72.680672 : 0"
   inkscape:vp_z="41.506951 : 41.506951 : 0"
   inkscape:persp3d-origin="56.944964 : -3.7030592 : 1"
   id="perspective10" /><linearGradient
   inkscape:collect="always"
   id="linearGradient30560"><stop
     style="stop-color:#ecf0f1;stop-opacity:0;"
     offset="0"
     id="stop30556" /><stop
     style="stop-color:#ecf0f1;stop-opacity:0.87058824;"
     offset="0.15000001"
     id="stop30564" /><stop
     style="stop-color:#ecf0f1;stop-opacity:1;"
     offset="0.84657532"
     id="stop30568" /><stop
     style="stop-color:#ecf0f1;stop-opacity:0;"
     offset="1"
     id="stop30558" /></linearGradient>&#10;        &#10;        <linearGradient
   id="linearGradient3224"><stop
   style="stop-color:#ffffff;stop-opacity:1;"
   offset="0"
   id="stop3228" />&#10;            <stop
   style="stop-color:#ffffff;stop-opacity:1;"
   offset="1"
   id="stop3230" /></linearGradient>&#10;        <linearGradient
   id="linearGradient3224-1"><stop
   style="stop-color:#505050;stop-opacity:1;"
   offset="0"
   id="stop3220" />&#10;            <stop
   style="stop-color:#505050;stop-opacity:0;"
   offset="1"
   id="stop3222" /></linearGradient>&#10;        <filter
   style="color-interpolation-filters:sRGB"
   inkscape:label="Color Shift"
   id="filter10712"
   x="4.3133588e-16"
   y="2.2521042e-14"
   width="1"
   height="1"><feColorMatrix
   type="hueRotate"
   values="177"
   result="color1"
   id="feColorMatrix10708" />&#10;            <feColorMatrix
   type="saturate"
   values="0.6"
   result="color2"
   id="feColorMatrix10710" /></filter>&#10;        <clipPath
   clipPathUnits="userSpaceOnUse"
   id="clipPath18164"><g
     inkscape:label="Clip"
     id="use18166" /></clipPath>&#10;        <inkscape:path-effect
   effect="fill_between_many"
   method="originald"
   linkedpaths="#g3809-8-0-6-8,0,1"
   id="path-effect23266"
   is_visible="true"
   lpeversion="0"
   join="true"
   close="true"
   autoreverse="true" />&#10;        &#10;        <linearGradient
   inkscape:collect="always"
   xlink:href="#linearGradient30560"
   id="linearGradient30562"
   x1="-25.292297"
   y1="8.2665844"
   x2="65.118004"
   y2="8.2665844"
   gradientUnits="userSpaceOnUse" /><style
   id="style1">.cls-1{fill:#4c4c4c;}.cls-2{fill:gray;}</style></defs>&#10;    <g
   inkscape:groupmode="layer"
   id="layer2"
   inkscape:label="Work copies"
   transform="translate(25.292297)" />&#10;    <g
   inkscape:groupmode="layer"
   id="layer3"
   inkscape:label="Light"
   transform="translate(25.292297)"
   style="display:none"><rect
   style="display:inline;fill:url(#linearGradient30562);fill-opacity:1;fill-rule:evenodd;stroke:none;stroke-width:0.535373;stroke-linecap:round;stroke-linejoin:round;stroke-dasharray:none;stroke-opacity:1;paint-order:normal"
   id="rect24381"
   width="90.410301"
   height="16.533169"
   x="-25.292297"
   y="0"
   ry="3.7077129e-14"
   inkscape:label="Background" />&#10;        <g
   id="g21073-5-5-7"
   style="display:inline"
   inkscape:label="Text black"
   transform="translate(-88.74093,-143.50577)"><text
   xml:space="preserve"
   style="font-style:normal;font-variant:normal;font-weight:normal;font-stretch:normal;font-size:12.7px;line-height:1.25;font-family:'Roboto Condensed';-inkscape-font-specification:'Roboto Condensed, ';display:none;fill:#2d8298;fill-opacity:1;stroke:none;stroke-width:0.2;stroke-dasharray:none;stroke-opacity:1"
   id="text367-7-4-5-0-3"
   y="155.34514"
   x="90.777328"
   inkscape:label="Uncut main Text"><tspan
     sodipodi:role="line"
     id="tspan365-6-9-3-3-3"
     x="0"
     y="0"
     style="font-style:italic;font-variant:normal;font-weight:bold;font-stretch:normal;font-size:12.7px;font-family:Roboto;-inkscape-font-specification:'Roboto Bold Italic';fill:#070e10;fill-opacity:1;stroke:none;stroke-width:0.2;stroke-dasharray:none;stroke-opacity:1">Plume</tspan></text>&#10;            <path
   id="text367-7-4-3-6-7-3"
   style="font-style:normal;font-variant:normal;font-weight:normal;font-stretch:normal;font-size:12.7px;line-height:1.25;font-family:'Roboto Condensed';-inkscape-font-specification:'Roboto Condensed, ';display:inline;fill:#2c3e50;fill-opacity:1;stroke:none;stroke-width:0.2;stroke-dasharray:none;stroke-opacity:1"
   inkscape:label="Main Text"
   d="m 100.54406,145.82014 -1.655717,9.525 h 1.761137 l 1.64951,-9.525 z m -7.511173,0.49713 c 0.348003,0.48187 0.679505,1.00693 0.784965,1.25522 0.06327,0.1489 0.120602,0.31303 0.174149,0.48421 l 0.04082,-0.23358 1.711523,0.006 c 0.392741,0.0165 0.688331,0.15297 0.886768,0.40928 0.202571,0.25632 0.272851,0.59945 0.21084,1.0294 -0.06201,0.42994 -0.254249,0.77101 -0.576709,1.02319 -0.322461,0.25218 -0.727605,0.37827 -1.21543,0.37827 l -0.641821,-0.005 c 0.02326,0.61215 -0.007,1.15651 -0.101286,1.50327 l 0.687297,0.003 c 1.041795,0 1.897559,-0.26458 2.567285,-0.79375 0.67386,-0.52916 1.043864,-1.2361 1.110009,-2.1208 0.07028,-0.87229 -0.173633,-1.57923 -0.731738,-2.1208 -0.558105,-0.54157 -1.324985,-0.81235 -2.300635,-0.81235 z m 30.503563,2.19315 c -0.56343,0.003 -1.07978,0.14366 -1.54874,0.42271 -0.50023,0.29352 -0.90951,0.71314 -1.22783,1.25884 -0.31833,0.5457 -0.5085,1.14515 -0.57051,1.79834 l -0.0186,0.24805 c -0.0496,0.59531 0.0372,1.14101 0.26044,1.63711 0.22325,0.49196 0.56018,0.88056 1.0108,1.16582 0.45475,0.28112 0.97565,0.42374 1.56269,0.42788 0.5457,0.008 1.05627,-0.093 1.53169,-0.30386 0.47542,-0.21497 0.83923,-0.51263 1.09141,-0.89297 l -0.79995,-0.99219 c -0.47956,0.5085 -1.03767,0.75448 -1.67432,0.73794 -0.39274,-0.008 -0.7028,-0.14262 -0.93018,-0.40307 -0.22737,-0.26045 -0.33279,-0.60772 -0.31626,-1.0418 h 4.11138 l 0.0992,-0.76274 c 0.10749,-0.94671 -0.062,-1.72806 -0.5085,-2.34405 -0.44235,-0.62011 -1.09554,-0.93844 -1.95957,-0.95498 -0.038,-0.001 -0.0756,-0.001 -0.11317,-0.001 z m -9.90534,5.2e-4 c -0.73803,0.003 -1.36929,0.29636 -1.89394,0.88108 l 0.14263,-0.76274 -1.63091,0.006 -1.15962,6.70966 h 1.74873 l 0.83716,-4.75009 c 0.35553,-0.42995 0.75448,-0.63872 1.19683,-0.62632 0.46302,0.0124 0.709,0.23771 0.73794,0.67593 0.004,0.13229 -0.002,0.27491 -0.0186,0.42788 l -0.71313,4.2726 h 1.74873 l 0.78135,-4.47104 0.0186,-0.14263 c 0.34313,-0.51263 0.75448,-0.76894 1.23403,-0.76894 0.46716,0.0124 0.7152,0.23564 0.74414,0.66972 0.004,0.1323 -0.002,0.27492 -0.0186,0.42788 l -0.71314,4.28501 h 1.75494 l 0.71313,-4.2726 0.0124,-0.15503 c 0.0496,-0.77308 -0.0827,-1.36426 -0.39687,-1.77354 -0.31006,-0.40927 -0.77308,-0.62011 -1.38906,-0.63252 -0.79789,-0.0165 -1.49242,0.32453 -2.0836,1.0232 -0.0951,-0.31006 -0.27905,-0.55604 -0.5519,-0.73794 -0.27285,-0.1819 -0.61599,-0.27699 -1.0294,-0.28526 -0.024,-5.1e-4 -0.048,-6e-4 -0.0718,-5.1e-4 z m -10.31513,0.12454 -0.72554,4.34082 c -0.0744,0.74414 0.0537,1.34358 0.38448,1.79834 0.33072,0.45475 0.81855,0.68626 1.46347,0.69453 0.73587,0.0124 1.35186,-0.26045 1.84795,-0.81856 l -0.13022,0.69453 h 1.63091 l 1.16582,-6.70966 h -1.76114 l -0.83716,4.7563 c -0.35553,0.43408 -0.80408,0.64285 -1.34565,0.62631 -0.41755,-0.0124 -0.64699,-0.22531 -0.68833,-0.63872 -0.0124,-0.11989 -0.0103,-0.24804 0.006,-0.38447 l 0.73794,-4.35942 z m 20.18688,1.32033 c 0.0199,-3.4e-4 0.0398,0 0.06,5.2e-4 0.24804,0.004 0.45268,0.0744 0.61391,0.21084 0.16123,0.13229 0.26252,0.31832 0.30386,0.5581 0.0207,0.14883 0.0186,0.30593 -0.006,0.47129 l -0.0372,0.16123 h -2.40605 c 0.19843,-0.5209 0.42168,-0.88677 0.66972,-1.09761 0.23642,-0.19766 0.50383,-0.29928 0.80202,-0.30437 z"
   sodipodi:nodetypes="ccccccccccccsccccccscccccccccccccccccccccccccccccccccccccccccccccsccccsccccccccccccscccccccs" />&#10;            <text
   xml:space="preserve"
   style="font-size:1.41111px;line-height:1.25;font-family:Garamond;-inkscape-font-specification:Garamond;display:inline;fill:#2c3e50;fill-opacity:1;stroke-width:0.264954"
   x="101.03231"
   y="157.64516"
   id="text1887-2-7-4-0"
   transform="scale(1.0014056,0.99859638)"
   inkscape:label="Subtext"><tspan
     sodipodi:role="line"
     id="tspan1885-4-7-8-9"
     style="font-style:normal;font-variant:normal;font-weight:normal;font-stretch:normal;font-size:1.41111px;font-family:Roboto;-inkscape-font-specification:Roboto;fill:#2c3e50;fill-opacity:1;stroke-width:0.264954"
     x="101.03231"
     y="157.64516"><tspan
   style="font-style:normal;font-variant:normal;font-weight:bold;font-stretch:normal;font-size:1.41111px;font-family:Roboto;-inkscape-font-specification:'Roboto Bold';fill:#2c3e50;fill-opacity:1"
   id="tspan1890-5-2-6-1">PL</tspan>ugin for <tspan
   style="font-style:normal;font-variant:normal;font-weight:bold;font-stretch:normal;font-size:1.41111px;font-family:Roboto;-inkscape-font-specification:'Roboto Bold';fill:#2c3e50;fill-opacity:1"
   id="tspan1892-4-0-2-9">U</tspan>nity to <tspan
   style="font-style:normal;font-variant:normal;font-weight:bold;font-stretch:normal;font-size:1.41111px;font-family:Roboto;-inkscape-font-specification:'Roboto Bold';fill:#2c3e50;fill-opacity:1"
   id="tspan1894-3-9-3-7">M</tspan>onitor <tspan
   style="font-style:normal;font-variant:normal;font-weight:bold;font-stretch:normal;font-size:1.41111px;font-family:Roboto;-inkscape-font-specification:'Roboto Bold';fill:#2c3e50;fill-opacity:1"
   id="tspan1896-6-3-5-1">E</tspan>xperiments</tspan></text>&#10;            <path
   d="m 94.237778,156.8839 c -0.229014,2.1e-4 -0.418618,0.0276 -0.79319,0.16672 -0.374573,0.13914 -0.918698,-0.1599 -1.086392,-0.24798 -0.167694,-0.0881 -0.216006,-0.12245 -0.35965,-0.15067 0.06813,-8.5e-4 0.161246,-0.0185 0.425048,0.1176 0.319557,0.15914 0.752522,0.19694 1.007671,0.0442 0.255147,-0.15276 0.547433,-0.2306 0.931152,-0.21633 0.383719,0.0143 0.8552,0.34878 1.348346,0.30701 0.493147,-0.0418 1.067558,-0.55246 1.575777,-0.50595 0.516395,0.0797 0.905841,0.3505 1.276445,0.36306 0.370605,0.0126 0.655022,-0.18551 1.003264,-0.22832 0.348242,-0.0428 0.782941,0.14847 1.102291,0.40275 -0.38173,-0.0655 -0.745372,0.003 -1.060792,0.10258 -0.415702,0.13685 -0.426286,0.24224 -1.081847,0.25059 -0.655561,0.008 -0.824532,-0.42824 -1.280483,-0.45082 -0.455952,-0.0226 -1.054952,0.38085 -1.506261,0.40955 -0.515507,0.0139 -1.014634,-0.34353 -1.501379,-0.36399 z"
   style="display:inline;fill:#2980b9;fill-opacity:1;stroke:none;stroke-width:0.348441;stroke-dasharray:none;stroke-opacity:1;paint-order:markers stroke fill"
   id="path12303-1-1-5-4"
   sodipodi:nodetypes="czzcczzzczzcczzcc"
   inkscape:label="Squiggle" /></g>&#10;        <g
   id="g3809-8-0-6-3-8"
   style="fill:#3498db;fill-opacity:1;stroke:none;stroke-width:1.68293;paint-order:stroke fill markers"
   inkscape:label="Feather transparent"
   transform="matrix(-0.14089615,-0.15297099,-0.15297099,0.14089615,8.5089278,7.3045137)"><path
   id="path23515-7-8"
   style="color:#000000;display:inline;fill:#3498db;fill-opacity:1;stroke:none;stroke-width:1.68293;-inkscape-stroke:none;paint-order:stroke fill markers"
   d="m 13.207957,29.00184 c 0.440222,0.485012 -4.7290565,1.874676 -7.8106675,1.184337 0.3842279,-0.59736 0.8078714,-1.234022 1.2597864,-1.900168 2.0977751,0.636895 5.4285881,0.311568 6.4185181,0.641811 0.06389,0.02133 0.107046,0.04613 0.132363,0.07402 z M 3.6460067,25.302971 c 0.2222056,0.227272 0.4398936,0.716774 0.8860472,1.332419 -0.024477,0.03585 -0.05238,0.07547 -0.076665,0.111152 -0.3973348,0.583828 -0.7658575,1.139806 -1.1133333,1.674064 -0.433692,-1.240386 -0.6434743,-2.953703 -0.2298268,-3.180013 0.2306248,-0.125625 0.3838725,-0.09095 0.5337784,0.06238 z" />&#10;            <path
   style="color:#000000;display:inline;fill:#3498db;fill-opacity:1;stroke:none;stroke-width:1.68293;-inkscape-stroke:none;paint-order:stroke fill markers"
   d="m 35.107832,2.4357375 c -0.116699,2.3672277 -1.363563,5.4259917 -1.7288,6.0819436 -0.341945,0.6134001 -0.879879,1.3150338 -1.615123,2.1598919 l -0.454804,-0.101337 c -2.05222,-0.45628 -4.76106,-1.143555 -6.509765,-1.8448539 l -0.0087,-0.00212 C 27.932758,6.3429615 31.377406,4.1768167 35.107832,2.4357375 Z M 31.556358,1.2206435 C 28.652562,2.7679081 25.949904,4.5549784 23.420776,6.4607906 22.930417,5.6383811 22.361388,4.5902679 22.101799,3.510351 l -0.03901,-0.1633845 c 0.591134,-0.2646716 1.174996,-0.5108758 1.736721,-0.71117 1.331438,-0.4750071 4.701182,-1.0920082 7.756845,-1.415153 z M 26.75779,15.933764 c -0.654901,0.667908 -1.256234,1.280105 -2.022744,2.06577 -0.252,0.257999 -5.119739,-0.458274 -5.376739,-0.189275 -0.283,0.296 4.044937,1.578207 3.755937,1.888207 -0.737999,0.789999 -1.496431,1.622809 -2.26943,2.505808 -0.172,0.196 -8.311996,-0.922445 -8.484996,-0.721445 -0.232,0.27 7.502868,1.861779 7.267868,2.139779 -0.644999,0.764999 -1.300746,1.564156 -1.960745,2.397155 -1.289876,1.628608 -7.525028,1.707603 -10.5903691,1.643391 1.1012414,-1.595222 2.376232,-3.342283 3.8351071,-5.174179 2.267124,-2.846769 4.967835,-5.880112 8.060529,-8.805945 l 0.64421,0.284969 c 1.840525,0.822466 4.651592,1.531047 7.141372,1.965765 z M 16.035375,6.7534589 c 0.288487,1.6525353 0.743933,3.4745021 1.301337,4.8348231 C 12.084376,16.528917 7.9399401,21.74171 5.0141234,25.944766 4.1492456,21.383327 4.7363242,18.703232 5.4331321,16.860005 6.3354253,14.469951 10.956919,10.148483 16.035375,6.7534589 Z"
   id="path23735-6-2" />&#10;            <path
   style="color:#000000;fill:#3498db;fill-opacity:1;stroke:none;stroke-width:1.68293;-inkscape-stroke:none;paint-order:stroke fill markers"
   d="m 31.12591,11.396961 c -0.935794,1.024505 -2.130182,2.252424 -3.659611,3.813279 -2.557577,-0.410412 -5.99827,-1.360188 -7.836487,-2.181623 1.390584,-1.213683 2.851154,-2.514373 4.465571,-3.7524774 1.848002,0.7411214 4.958892,1.6602244 7.030527,2.1208214 z"
   id="path23729-3-29"
   sodipodi:nodetypes="ccccc" />&#10;            <path
   style="color:#000000;fill:#3498db;fill-opacity:1;stroke:none;stroke-width:1.68293;-inkscape-stroke:none;paint-order:stroke fill markers"
   d="M 35,1 C 34.631,1 34.249,0.997 33.862,0.992 29.947,2.866 26.353,5.186 23.09,7.722 22.41,6.852 21.639,5.19 21.283,3.709 c -1.467,0.708 -2.987,1.575 -4.484,2.539 0.309,1.911 0.852,4.377 1.455,5.589 C 6.827,22.441 0.638,34.605 0.553,34.776 0.429,35.023 0.53,35.323 0.777,35.447 0.848,35.483 0.924,35.5 1,35.5 1.184,35.5 1.36,35.398 1.448,35.224 1.567,34.986 13.592,11.341 35.107,1.504 35.075,1.33 35.041,1.161 35,1 Z"
   id="path23723-2-9" /></g></g>&#10;    <g
   inkscape:label="Dark"
   inkscape:groupmode="layer"
   id="layer1"
   transform="translate(-63.431431,-143.27066)"
   style="display:inline">&#10;        &#10;        <g
   id="g3"
   data-name="Layer 1"
   transform="matrix(0.09156357,0,0,0.09156357,61.439637,141.90444)"
   style="display:inline"><g
     id="g2"
     transform="translate(9.1946942,3.0648981)"><text
       xml:space="preserve"
       style="font-size:77.0564px;font-family:Garamond;-inkscape-font-specification:Garamond;letter-spacing:0px;fill:#ffffff;stroke-width:2.18428;stroke-linecap:round;stroke-dasharray:2.18428, 6.55283;fill-opacity:1"
       x="194.40906"
       y="126.27896"
       id="text2"><tspan
         sodipodi:role="line"
         id="tspan2"
         style="font-style:normal;font-variant:normal;font-weight:bold;font-stretch:normal;font-size:77.0564px;font-family:Arial;-inkscape-font-specification:'Arial Bold';letter-spacing:0px;fill:#ffffff;fill-opacity:1;stroke-width:2.18427"
         x="194.40906"
         y="126.27896"
         dx="0">Unity Runtime GUIDs</tspan></text></g></g><g
   id="Layer_1"
   data-name="Layer 1"
   transform="matrix(0.09156357,0,0,0.09156357,61.439637,141.90444)"><g
     id="g1"
     transform="translate(9.1946942,3.0648981)"><text
       xml:space="preserve"
       style="font-size:77.0564px;font-family:Garamond;-inkscape-font-specification:Garamond;letter-spacing:0px;display:none;fill:#ffffff;stroke-width:2.18428;stroke-linecap:round;stroke-dasharray:2.18428, 6.55283"
       x="194.40906"
       y="126.27896"
       id="text1"><tspan
         sodipodi:role="line"
         id="tspan1"
         style="font-style:normal;font-variant:normal;font-weight:bold;font-stretch:normal;font-size:77.0564px;font-family:Arial;-inkscape-font-specification:'Arial Bold';letter-spacing:0px;fill:#000000;fill-opacity:1;stroke-width:2.18427"
         x="194.40906"
         y="126.27896"
         dx="0">Unity Runtime GUIDs</tspan></text></g></g><path
   style="display:inline;fill:#60d4ff;fill-opacity:1;stroke-width:0.2;stroke-linecap:round;stroke-dasharray:0.2, 0.600001"
   d="m 77.318591,147.90002 -6.008401,3.4666 -6.004739,-3.4666 6.004739,-3.47181 z"
   id="path21" /><path
   style="display:inline;fill:#0098d0;fill-opacity:1;stroke-width:0.2;stroke-linecap:round;stroke-dasharray:0.2, 0.600001"
   d="m 77.318591,147.90002 -6.008401,3.4666 0.0037,6.93411 6.001076,-3.45455 z"
   id="path22"
   sodipodi:nodetypes="ccccc" /><path
   style="display:inline;fill:#13c0ff;fill-opacity:1;stroke-width:0.2;stroke-linecap:round;stroke-dasharray:0.2, 0.600001"
   d="m 65.305451,147.90002 6.008401,3.4666 3.8e-5,6.93411 -6.008401,-3.45396 z"
   id="path23"
   sodipodi:nodetypes="ccccc" /><path
   style="fill:#0ab4f3;fill-opacity:1;stroke-width:0.2;stroke-linecap:round;stroke-dasharray:0.2, 0.600001"
   d="m 71.31329,158.30741 c 0,0 -4.630062,-4.26262 -6.00657,-10.40368 l -0.0025,6.93933 z"
   id="path24"
   sodipodi:nodetypes="cccc" /><path
   d="m 68.383418,147.49038 c -0.0388,-0.0145 -0.06235,-0.0326 -0.07066,-0.0543 -0.0083,-0.0217 0.0042,-0.0442 0.03741,-0.0674 0.343609,-0.24628 0.774527,-0.43752 1.292773,-0.57374 0.518286,-0.13622 1.07126,-0.20436 1.658929,-0.20442 0.587719,-5e-5 1.142217,0.0658 1.663486,0.19764 0.521309,0.13182 0.956687,0.32235 1.306119,0.57159 0.03883,0.0261 0.05131,0.0493 0.03743,0.0696 -0.01387,0.0203 -0.03744,0.0377 -0.07071,0.0522 -0.03329,0.0145 -0.07211,0.021 -0.116471,0.0196 -0.04437,-0.001 -0.08319,-0.0138 -0.116469,-0.0369 -0.305049,-0.22605 -0.697432,-0.3992 -1.177135,-0.51943 -0.479671,-0.12023 -0.988418,-0.18032 -1.526234,-0.18028 -0.537776,4e-5 -1.042249,0.0602 -1.513426,0.18049 -0.471145,0.12027 -0.861893,0.2934 -1.172259,0.51939 -0.03326,0.0261 -0.07205,0.0405 -0.116376,0.0434 -0.04434,0.003 -0.08313,-0.003 -0.116375,-0.0174 z m 3.858269,2.1429 c -0.57666,-0.0754 -1.047933,-0.22543 -1.413841,-0.45003 -0.365888,-0.2246 -0.548824,-0.49915 -0.548824,-0.82368 0,-0.14488 0.09978,-0.26657 0.299353,-0.36508 0.199576,-0.0985 0.440738,-0.14778 0.723491,-0.14778 0.282764,0 0.523955,0.0493 0.723567,0.14779 0.199618,0.0985 0.299429,0.22024 0.299429,0.36514 0,0.0956 0.06932,0.17605 0.207945,0.24126 0.138633,0.0652 0.302224,0.0978 0.490775,0.0978 0.188555,1e-5 0.349386,-0.0326 0.482491,-0.0978 0.133107,-0.0652 0.199661,-0.14562 0.199661,-0.24127 0,-0.33619 -0.23571,-0.61876 -0.707106,-0.8477 -0.471365,-0.22893 -1.034188,-0.34337 -1.688445,-0.34333 -0.654196,3e-5 -1.216866,0.11451 -1.688031,0.34342 -0.471134,0.2289 -0.706689,0.50993 -0.706689,0.84311 0,0.0695 0.01247,0.15645 0.03741,0.26075 0.02493,0.1043 0.08451,0.226 0.178743,0.36507 0.01663,0.0261 0.01525,0.0493 -0.0041,0.0695 -0.0194,0.0203 -0.05127,0.0348 -0.09561,0.0434 -0.04434,0.009 -0.08729,0.008 -0.12886,-0.002 -0.04157,-0.0101 -0.07066,-0.0268 -0.08729,-0.05 -0.08313,-0.113 -0.142713,-0.22527 -0.178735,-0.33681 -0.03602,-0.11154 -0.05403,-0.22671 -0.05403,-0.34549 0,-0.38532 0.267412,-0.70836 0.802266,-0.96912 0.534896,-0.2608 1.173776,-0.39122 1.916671,-0.39127 0.748519,-5e-5 1.391757,0.13032 1.929682,0.39112 0.537967,0.26082 0.806966,0.58398 0.806966,0.96945 0,0.14491 -0.09845,0.26592 -0.295343,0.363 -0.19689,0.0971 -0.436754,0.14561 -0.719589,0.14559 -0.282823,-2e-5 -0.525433,-0.0486 -0.727832,-0.14568 -0.202392,-0.0971 -0.303585,-0.21808 -0.303585,-0.36298 0,-0.0956 -0.06793,-0.17605 -0.203771,-0.24125 -0.135843,-0.0652 -0.29802,-0.0978 -0.486528,-0.0978 -0.188503,0 -0.350667,0.0326 -0.486494,0.0978 -0.135825,0.0652 -0.203736,0.1456 -0.203736,0.24122 0,0.28107 0.159385,0.51579 0.478165,0.70417 0.318793,0.18837 0.730475,0.32026 1.235061,0.39566 0.04991,0.009 0.08318,0.0232 0.0998,0.0435 0.01663,0.0203 0.0194,0.042 0.0083,0.0652 -0.01109,0.0203 -0.03327,0.0377 -0.06654,0.0522 -0.03328,0.0145 -0.07487,0.0189 -0.124766,0.013 z m -2.777507,-3.05125 c -0.04434,0.0145 -0.08868,0.0181 -0.133021,0.0108 -0.04434,-0.007 -0.07759,-0.0224 -0.09976,-0.0457 -0.02217,-0.0232 -0.02772,-0.0442 -0.01663,-0.063 0.01109,-0.0188 0.0388,-0.0355 0.08314,-0.05 0.310397,-0.087 0.634665,-0.15364 0.972807,-0.20004 0.33816,-0.0464 0.68188,-0.0696 1.031161,-0.0697 0.354844,-4e-5 0.701388,0.0224 1.039632,0.0673 0.338261,0.0449 0.665447,0.10934 0.981557,0.19334 0.04991,0.0145 0.07902,0.0319 0.08735,0.0522 0.0083,0.0203 0.0041,0.0406 -0.01243,0.0608 -0.01664,0.0203 -0.04437,0.0363 -0.08319,0.0479 -0.03882,0.0116 -0.08596,0.0101 -0.141423,-0.004 -0.293922,-0.0782 -0.597534,-0.13832 -0.910837,-0.18031 -0.313289,-0.042 -0.633494,-0.0629 -0.960614,-0.0629 -0.321561,4e-5 -0.637564,0.0196 -0.948009,0.0588 -0.310431,0.0391 -0.606989,0.10074 -0.889678,0.1848 z m 0.981146,2.99017 c -0.327063,-0.17968 -0.577894,-0.36297 -0.7525,-0.54987 -0.174603,-0.18689 -0.261903,-0.40782 -0.261903,-0.66279 0,-0.26365 0.182915,-0.48602 0.548758,-0.66712 0.365862,-0.1811 0.806586,-0.27166 1.322185,-0.27168 0.515638,-2e-5 0.959229,0.0905 1.330758,0.27164 0.371549,0.18113 0.55733,0.40356 0.55733,0.66729 0,0.0261 -0.01525,0.0471 -0.04575,0.063 -0.0305,0.0159 -0.07071,0.0239 -0.120623,0.0239 -0.04436,-1e-5 -0.08318,-0.008 -0.116451,-0.0239 -0.03328,-0.0159 -0.04992,-0.0369 -0.04992,-0.063 0,-0.21736 -0.153887,-0.39921 -0.461652,-0.54556 -0.307749,-0.14634 -0.672317,-0.2195 -1.093696,-0.21949 -0.421354,1e-5 -0.783087,0.0732 -1.08521,0.21951 -0.302108,0.14632 -0.453157,0.32813 -0.453157,0.54543 0,0.23469 0.0776,0.4339 0.232811,0.59762 0.155212,0.16371 0.382493,0.32817 0.681852,0.49336 0.03327,0.0174 0.0499,0.0377 0.0499,0.0608 0,0.0232 -0.01663,0.0435 -0.0499,0.0608 -0.03327,0.0173 -0.07207,0.026 -0.116411,0.026 -0.04435,-1e-5 -0.08315,-0.009 -0.116423,-0.0261 z m 2.511709,-0.29529 c -0.493543,-5e-5 -0.921898,-0.087 -1.285077,-0.26094 -0.363162,-0.17389 -0.544735,-0.39268 -0.544735,-0.65637 0,-0.0232 0.01525,-0.0435 0.04574,-0.0608 0.03049,-0.0174 0.07069,-0.0261 0.120591,-0.0261 0.04989,0 0.09009,0.009 0.120593,0.0261 0.03049,0.0174 0.04574,0.0377 0.04574,0.0608 0,0.21733 0.149701,0.39556 0.449112,0.53467 0.299424,0.13912 0.648769,0.20871 1.048042,0.20874 0.03328,0 0.08042,-0.001 0.141419,-0.004 0.061,-0.003 0.124776,-0.007 0.19133,-0.013 0.04991,-0.006 0.09289,-0.002 0.128942,0.0108 0.03605,0.013 0.05962,0.0326 0.07071,0.0587 0.01109,0.0232 0.0028,0.0435 -0.02495,0.0608 -0.02773,0.0174 -0.06378,0.029 -0.108145,0.0348 -0.09983,0.0145 -0.187174,0.0224 -0.262042,0.0239 -0.07487,0.001 -0.120622,0.002 -0.137248,0.002 z"
   id="path1"
   style="stroke-width:0.00582394;fill:#0ab4f3;fill-opacity:1"
   inkscape:path-effect="#path-effect24"
   inkscape:original-d="m 69.26094,147.35103 q -0.04077,-0.0292 -0.0495,-0.0728 -0.0087,-0.0437 0.02621,-0.0903 0.361086,-0.49504 0.905624,-0.76877 0.54454,-0.27372 1.161878,-0.27372 0.617338,0 1.164789,0.26499 0.547451,0.26498 0.91436,0.76585 0.04077,0.0524 0.0262,0.0932 -0.01456,0.0408 -0.0495,0.0699 -0.03495,0.0291 -0.08153,0.0262 -0.04659,-0.003 -0.08153,-0.0495 -0.320317,-0.45427 -0.824088,-0.69596 -0.503772,-0.24169 -1.068694,-0.24169 -0.564924,0 -1.05996,0.24169 -0.495035,0.24169 -0.821176,0.69596 -0.03495,0.0524 -0.08153,0.0582 -0.04659,0.006 -0.08153,-0.0233 z m 2.702311,2.8712 q -0.60569,-0.15142 -0.990071,-0.60277 -0.38438,-0.45136 -0.38438,-1.10365 0,-0.2912 0.209662,-0.48921 0.209662,-0.19801 0.506683,-0.19801 0.297021,0 0.506683,0.19801 0.209662,0.19801 0.209662,0.48921 0,0.19219 0.145599,0.32323 0.145598,0.13104 0.343613,0.13104 0.198014,0 0.337789,-0.13104 0.139775,-0.13104 0.139775,-0.32323 0,-0.67557 -0.495035,-1.13566 -0.495036,-0.46009 -1.182262,-0.46009 -0.687226,0 -1.182261,0.46009 -0.495036,0.46009 -0.495036,1.12984 0,0.13978 0.02621,0.34943 0.0262,0.20967 0.125214,0.48922 0.01747,0.0524 -0.0029,0.0932 -0.02038,0.0408 -0.06698,0.0582 -0.04659,0.0174 -0.09027,-0.003 -0.04368,-0.0203 -0.06115,-0.067 -0.08736,-0.22713 -0.125214,-0.45135 -0.03785,-0.22422 -0.03785,-0.46301 0,-0.77458 0.562011,-1.29873 0.562011,-0.52416 1.34242,-0.52416 0.786233,0 1.351156,0.52416 0.564922,0.52415 0.564922,1.29873 0,0.2912 -0.206749,0.48631 -0.206751,0.1951 -0.503772,0.1951 -0.297021,0 -0.509596,-0.1951 -0.212573,-0.19511 -0.212573,-0.48631 0,-0.19219 -0.142687,-0.32323 -0.142687,-0.13103 -0.340701,-0.13103 -0.198014,0 -0.340701,0.13103 -0.142687,0.13104 -0.142687,0.32323 0,0.56493 0.334878,0.94349 0.334876,0.37855 0.864855,0.52997 0.05242,0.0175 0.06988,0.0583 0.01747,0.0408 0.0058,0.0873 -0.01165,0.0408 -0.04659,0.0699 -0.03495,0.0292 -0.08736,0.0174 z m -1.945198,-4.08841 q -0.04659,0.0291 -0.09318,0.0145 -0.04659,-0.0145 -0.06988,-0.0612 -0.0233,-0.0466 -0.01165,-0.0844 0.01165,-0.0379 0.05824,-0.067 0.326141,-0.17472 0.681401,-0.26791 0.355262,-0.0932 0.72217,-0.0932 0.372733,0 0.727993,0.0903 0.355261,0.0903 0.687226,0.25917 0.05241,0.0291 0.06115,0.0699 0.0087,0.0408 -0.0087,0.0815 -0.01747,0.0408 -0.05824,0.0641 -0.04077,0.0233 -0.09901,-0.006 -0.30867,-0.15725 -0.637723,-0.2417 -0.329053,-0.0844 -0.672665,-0.0844 -0.337789,0 -0.663931,0.0786 -0.326141,0.0786 -0.623162,0.24752 z m 0.687225,4.00687 q -0.343612,-0.36108 -0.527066,-0.73672 -0.183455,-0.37565 -0.183455,-0.88816 0,-0.52997 0.384381,-0.89398 0.38438,-0.36399 0.926007,-0.36399 0.541627,0 0.931832,0.36399 0.390204,0.36401 0.390204,0.89398 0,0.0524 -0.03203,0.0844 -0.03203,0.032 -0.08445,0.032 -0.04659,0 -0.08153,-0.032 -0.03495,-0.032 -0.03495,-0.0844 0,-0.43679 -0.32323,-0.7309 -0.323228,-0.29411 -0.765848,-0.29411 -0.442621,0 -0.760026,0.29411 -0.317404,0.29411 -0.317404,0.7309 0,0.47174 0.16307,0.8008 0.16307,0.32905 0.477564,0.66101 0.03495,0.035 0.03495,0.0815 0,0.0466 -0.03495,0.0815 -0.03495,0.0349 -0.08153,0.0349 -0.04659,0 -0.08154,-0.0349 z m 1.758833,-0.39602 q -0.518332,0 -0.8998,-0.34944 -0.381469,-0.34944 -0.381469,-0.87942 0,-0.0466 0.03203,-0.0815 0.03203,-0.035 0.08445,-0.035 0.05241,0 0.08445,0.035 0.03203,0.035 0.03203,0.0815 0,0.4368 0.314493,0.71635 0.314493,0.27955 0.733817,0.27955 0.03495,0 0.09901,-0.006 0.06406,-0.006 0.133951,-0.0174 0.05241,-0.0116 0.09027,0.0145 0.03786,0.0262 0.0495,0.0786 0.01165,0.0466 -0.01747,0.0815 -0.02912,0.035 -0.07571,0.0466 -0.104832,0.0291 -0.183455,0.032 -0.07863,0.003 -0.09609,0.003 z" /></g></svg>
